<svg width="289" height="230" viewBox="0 0 289 230" fill="none" xmlns="http://www.w3.org/2000/svg">
  <g clip-path="url(#clip0_210_2)">
    <path d="M281.025 68.8203L155.067 30.3223C148.203 28.2244 140.797 28.2244 133.938 30.3223L7.97457 68.8203C-2.65522 72.0682 -2.65522 86.0524 7.97457 89.3002L29.9341 96.0116C25.1159 101.937 22.1536 109.165 21.8601 117.08C17.5116 119.56 14.45 124.034 14.45 129.375C14.45 134.218 17.0148 138.292 20.7086 140.897L9.18024 192.504C8.17777 196.991 11.6096 201.25 16.2291 201.25H41.5663C46.1903 201.25 49.6222 196.991 48.6197 192.504L37.0913 140.897C40.7851 138.292 43.35 134.218 43.35 129.375C43.35 124.178 40.4284 119.829 36.2785 117.305C36.6217 110.557 40.0897 104.592 45.6213 100.809L133.933 127.803C138.025 129.052 145.873 130.61 155.062 127.803L281.025 89.3047C291.66 86.0524 291.66 72.0727 281.025 68.8203V68.8203ZM159.307 141.544C146.424 145.48 135.446 143.305 129.689 141.544L64.2031 121.532L57.8 172.5C57.8 188.38 96.6163 201.25 144.5 201.25C192.384 201.25 231.2 188.38 231.2 172.5L224.797 121.527L159.307 141.544V141.544Z" fill="#BD93F9" />
  </g>
  <defs>
    <clipPath id="clip0_210_2">
      <rect width="289" height="230" fill="white" />
    </clipPath>
  </defs>
</svg>
